<?xml version="1.0" standalone="no"?>
<!DOCTYPE svg PUBLIC "-//W3C//DTD SVG 20010904//EN"
 "http://www.w3.org/TR/2001/REC-SVG-20010904/DTD/svg10.dtd">
<svg version="1.0" xmlns="http://www.w3.org/2000/svg"
 width="261.000000pt" height="261.000000pt" viewBox="0 0 261.000000 261.000000"
 preserveAspectRatio="xMidYMid meet">
<metadata>
Created by potrace 1.14, written by Peter Selinger 2001-2017
</metadata>
<g transform="translate(0.000000,261.000000) scale(0.100000,-0.100000)"
fill="#000000" stroke="none">
<path d="M769 2524 c-20 -43 -37 -83 -39 -89 -2 -5 -13 -27 -24 -48 -19 -33
-37 -45 -141 -93 -66 -30 -121 -57 -124 -59 -3 -4 53 -31 211 -103 28 -13 42
-29 63 -77 15 -33 42 -91 59 -129 l32 -68 58 129 c50 110 63 131 90 143 17 8
74 34 126 58 l95 45 -85 40 c-47 22 -87 41 -90 42 -60 20 -80 38 -107 97 -15
35 -42 92 -58 127 l-31 64 -35 -79z"/>
<path d="M2170 2478 c-62 -138 -41 -118 -229 -207 l-83 -39 78 -37 c44 -20
100 -45 126 -56 45 -20 47 -23 106 -149 l59 -129 52 112 c28 62 55 119 60 127
4 8 59 38 121 67 97 45 147 73 129 73 -3 0 -58 25 -124 55 l-119 54 -60 127
-61 126 -55 -124z"/>
<path d="M1471 1978 c-25 -7 -201 -177 -746 -722 -771 -771 -742 -738 -716
-818 8 -23 75 -97 209 -230 210 -208 228 -221 294 -199 45 15 1454 1424 1464
1464 17 72 5 90 -209 303 -214 214 -224 220 -296 202z m125 -383 l84 -85 -86
-86 -87 -86 -83 83 c-46 46 -83 87 -82 91 4 10 158 168 164 168 3 0 44 -38 90
-85z"/>
<path d="M2213 1155 c-6 -17 -32 -76 -58 -132 -42 -90 -52 -104 -84 -117 -20
-8 -76 -33 -124 -56 l-89 -42 124 -58 c137 -64 123 -49 202 -220 l45 -95 19
45 c11 25 38 83 60 130 l41 85 120 54 c67 29 121 56 121 60 -1 3 -55 31 -121
61 -134 61 -123 50 -197 210 -48 103 -49 104 -59 75z"/>
</g>
</svg>
