<svg width="250" height="46" viewBox="0 0 250 46" fill="none" xmlns="http://www.w3.org/2000/svg">
<rect x="6.45703" y="6.85761" width="32.2848" height="32.2848" rx="5.16556" fill="#90A7E5"/>
<mask id="mask0_39_559" style="mask-type:alpha" maskUnits="userSpaceOnUse" x="12" y="13" width="21" height="20">
<rect x="12.5994" y="13" width="20" height="20" fill="#D9D9D9"/>
</mask>
<g mask="url(#mask0_39_559)">
<path d="M29.2661 18.8333L28.4744 17.125L26.7661 16.3333L28.4744 15.5417L29.2661 13.8333L30.0578 15.5417L31.7661 16.3333L30.0578 17.125L29.2661 18.8333ZM19.6828 18.8333L18.8911 17.125L17.1828 16.3333L18.8911 15.5417L19.6828 13.8333L20.4744 15.5417L22.1828 16.3333L20.4744 17.125L19.6828 18.8333ZM29.2661 28.4167L28.4744 26.7083L26.7661 25.9167L28.4744 25.125L29.2661 23.4167L30.0578 25.125L31.7661 25.9167L30.0578 26.7083L29.2661 28.4167ZM16.8494 31.0833L14.5161 28.75C14.3494 28.5833 14.2661 28.382 14.2661 28.1458C14.2661 27.9097 14.3494 27.7083 14.5161 27.5417L23.8078 18.25C23.9744 18.0833 24.1758 18 24.4119 18C24.6481 18 24.8494 18.0833 25.0161 18.25L27.3494 20.5833C27.5161 20.75 27.5994 20.9514 27.5994 21.1875C27.5994 21.4236 27.5161 21.625 27.3494 21.7917L18.0578 31.0833C17.8911 31.25 17.6897 31.3333 17.4536 31.3333C17.2175 31.3333 17.0161 31.25 16.8494 31.0833ZM24.4119 22.3542L25.5786 21.1875L24.4119 20.0208L23.2453 21.1875L24.4119 22.3542Z" fill="#1C1B1F"/>
</g>
<rect x="1.61424" y="2.0149" width="41.9702" height="41.9702" rx="8.07119" stroke="#90A7E5" stroke-width="3.22848"/>
<path d="M62.5432 21.0433V34H58.5659V17.6987H62.3173L62.5432 21.0433ZM61.9557 25.2618H60.7353C60.7353 24.1268 60.8709 23.0823 61.1421 22.1281C61.4234 21.1739 61.8352 20.3453 62.3775 19.6422C62.9199 18.9291 63.5878 18.3767 64.3813 17.985C65.1848 17.5933 66.1139 17.3974 67.1685 17.3974C67.9017 17.3974 68.5746 17.5079 69.1873 17.7289C69.8 17.9398 70.3273 18.2763 70.7692 18.7383C71.2212 19.1902 71.5677 19.7828 71.8088 20.516C72.0498 21.2392 72.1703 22.108 72.1703 23.1224V34H68.193V23.5292C68.193 22.7659 68.0825 22.1683 67.8615 21.7364C67.6506 21.3045 67.3442 21.0032 66.9425 20.8324C66.5407 20.6516 66.0586 20.5612 65.4962 20.5612C64.8734 20.5612 64.3361 20.6868 63.8841 20.9379C63.4422 21.1789 63.0756 21.5154 62.7843 21.9473C62.5031 22.3792 62.2922 22.8764 62.1515 23.4388C62.021 24.0013 61.9557 24.6089 61.9557 25.2618ZM71.869 24.5236L70.2268 24.8249C70.2369 23.8004 70.3775 22.8412 70.6487 21.9473C70.9199 21.0433 71.3166 20.2549 71.8389 19.582C72.3712 18.899 73.0291 18.3666 73.8125 17.985C74.606 17.5933 75.52 17.3974 76.5545 17.3974C77.358 17.3974 78.0812 17.5129 78.724 17.7439C79.3769 17.9649 79.9343 18.3214 80.3963 18.8136C80.8583 19.2957 81.2099 19.9235 81.4509 20.6968C81.702 21.4702 81.8276 22.4143 81.8276 23.5292V34H77.82V23.5142C77.82 22.7207 77.7096 22.113 77.4886 21.6912C77.2777 21.2693 76.9713 20.9781 76.5696 20.8174C76.1678 20.6466 75.6958 20.5612 75.1534 20.5612C74.601 20.5612 74.1189 20.6667 73.7071 20.8776C73.3053 21.0785 72.9638 21.3597 72.6826 21.7213C72.4114 22.0829 72.2055 22.5047 72.0649 22.9868C71.9343 23.4589 71.869 23.9712 71.869 24.5236ZM94.3774 30.5348V23.017C94.3774 22.4646 94.282 21.9875 94.0912 21.5857C93.9004 21.184 93.6091 20.8726 93.2174 20.6516C92.8257 20.4307 92.3285 20.3202 91.7258 20.3202C91.1935 20.3202 90.7265 20.4106 90.3247 20.5914C89.933 20.7722 89.6317 21.0283 89.4208 21.3597C89.2098 21.6811 89.1044 22.0528 89.1044 22.4746H85.1119C85.1119 21.8017 85.2726 21.1639 85.594 20.5612C85.9154 19.9486 86.3724 19.4062 86.965 18.9341C87.5677 18.452 88.2858 18.0754 89.1194 17.8042C89.9631 17.533 90.9073 17.3974 91.9518 17.3974C93.1872 17.3974 94.287 17.6083 95.2513 18.0302C96.2255 18.442 96.9889 19.0647 97.5413 19.8983C98.1037 20.732 98.385 21.7816 98.385 23.0471V30.1582C98.385 30.9718 98.4352 31.6698 98.5356 32.2524C98.6461 32.8249 98.8068 33.322 99.0177 33.7439V34H94.965C94.7742 33.5882 94.6285 33.0659 94.5281 32.4331C94.4277 31.7903 94.3774 31.1576 94.3774 30.5348ZM94.9349 24.0716L94.965 26.4369H92.449C91.8263 26.4369 91.2789 26.5022 90.8068 26.6328C90.3348 26.7533 89.9481 26.9341 89.6468 27.1752C89.3454 27.4062 89.1194 27.6874 88.9688 28.0188C88.8181 28.3403 88.7428 28.7069 88.7428 29.1187C88.7428 29.5204 88.8332 29.882 89.014 30.2034C89.2048 30.5248 89.476 30.7809 89.8275 30.9718C90.1891 31.1526 90.611 31.2429 91.0931 31.2429C91.7962 31.2429 92.4088 31.1023 92.9311 30.8211C93.4534 30.5298 93.8602 30.1783 94.1514 29.7665C94.4427 29.3547 94.5984 28.963 94.6185 28.5914L95.7635 30.3089C95.6229 30.7207 95.412 31.1576 95.1307 31.6196C94.8495 32.0816 94.4879 32.5135 94.046 32.9153C93.6041 33.317 93.0717 33.6485 92.449 33.9096C91.8263 34.1707 91.1031 34.3013 90.2795 34.3013C89.2249 34.3013 88.2808 34.0904 87.4471 33.6686C86.6135 33.2467 85.9556 32.6692 85.4735 31.936C84.9914 31.2028 84.7503 30.3691 84.7503 29.435C84.7503 28.5713 84.911 27.8079 85.2325 27.145C85.5539 26.4821 86.0309 25.9247 86.6637 25.4727C87.2965 25.0107 88.0799 24.6642 89.014 24.4332C89.9581 24.1921 91.0378 24.0716 92.2531 24.0716H94.9349ZM108.66 31.1676C109.222 31.1676 109.725 31.0571 110.166 30.8362C110.608 30.6152 110.96 30.3038 111.221 29.9021C111.492 29.5003 111.638 29.0333 111.658 28.501H115.409C115.389 29.6058 115.078 30.5951 114.475 31.4689C113.873 32.3428 113.069 33.0358 112.065 33.548C111.07 34.0502 109.956 34.3013 108.72 34.3013C107.465 34.3013 106.37 34.0904 105.436 33.6686C104.502 33.2467 103.723 32.6591 103.101 31.9058C102.488 31.1526 102.026 30.2787 101.715 29.2844C101.413 28.29 101.263 27.2254 101.263 26.0904V25.6083C101.263 24.4733 101.413 23.4087 101.715 22.4143C102.026 21.42 102.488 20.5462 103.101 19.7929C103.723 19.0396 104.502 18.452 105.436 18.0302C106.37 17.6083 107.46 17.3974 108.705 17.3974C110.021 17.3974 111.176 17.6535 112.17 18.1658C113.175 18.678 113.958 19.4012 114.521 20.3353C115.093 21.2693 115.389 22.3691 115.409 23.6347H111.658C111.638 23.0521 111.507 22.5298 111.266 22.0678C111.025 21.6058 110.684 21.2342 110.242 20.953C109.8 20.6717 109.263 20.5311 108.63 20.5311C107.957 20.5311 107.394 20.6717 106.942 20.953C106.5 21.2342 106.154 21.6209 105.903 22.113C105.662 22.5951 105.491 23.1375 105.391 23.7401C105.3 24.3327 105.255 24.9555 105.255 25.6083V26.0904C105.255 26.7533 105.3 27.3861 105.391 27.9887C105.491 28.5914 105.662 29.1337 105.903 29.6158C106.154 30.0879 106.5 30.4645 106.942 30.7458C107.394 31.027 107.967 31.1676 108.66 31.1676ZM122.038 21.0283V34H118.061V17.6987H121.827L122.038 21.0283ZM126.995 17.5933L126.935 21.2995C126.714 21.2593 126.463 21.2292 126.181 21.2091C125.91 21.189 125.654 21.1789 125.413 21.1789C124.8 21.1789 124.263 21.2643 123.801 21.4351C123.339 21.5958 122.952 21.8318 122.641 22.1432C122.34 22.4545 122.109 22.8362 121.948 23.2882C121.787 23.7301 121.697 24.2323 121.677 24.7948L120.818 24.6893C120.818 23.6548 120.924 22.6956 121.134 21.8117C121.345 20.9278 121.652 20.1545 122.053 19.4916C122.455 18.8287 122.957 18.3164 123.56 17.9548C124.173 17.5832 124.876 17.3974 125.669 17.3974C125.89 17.3974 126.126 17.4175 126.377 17.4577C126.638 17.4878 126.844 17.533 126.995 17.5933ZM128.05 26.0151V25.6987C128.05 24.5035 128.22 23.4037 128.562 22.3993C128.903 21.3848 129.401 20.506 130.053 19.7628C130.706 19.0195 131.505 18.442 132.449 18.0302C133.393 17.6083 134.468 17.3974 135.673 17.3974C136.898 17.3974 137.983 17.6083 138.927 18.0302C139.881 18.442 140.685 19.0195 141.338 19.7628C141.991 20.506 142.488 21.3848 142.829 22.3993C143.171 23.4037 143.342 24.5035 143.342 25.6987V26.0151C143.342 27.2003 143.171 28.3001 142.829 29.3145C142.488 30.3189 141.991 31.1977 141.338 31.951C140.685 32.6943 139.886 33.2718 138.942 33.6836C137.998 34.0954 136.918 34.3013 135.703 34.3013C134.498 34.3013 133.418 34.0954 132.464 33.6836C131.51 33.2718 130.706 32.6943 130.053 31.951C129.401 31.1977 128.903 30.3189 128.562 29.3145C128.22 28.3001 128.05 27.2003 128.05 26.0151ZM132.027 25.6987V26.0151C132.027 26.7282 132.097 27.3961 132.238 28.0188C132.379 28.6416 132.595 29.189 132.886 29.661C133.177 30.1331 133.554 30.5047 134.016 30.7759C134.488 31.037 135.05 31.1676 135.703 31.1676C136.346 31.1676 136.898 31.037 137.36 30.7759C137.822 30.5047 138.199 30.1331 138.49 29.661C138.792 29.189 139.013 28.6416 139.153 28.0188C139.294 27.3961 139.364 26.7282 139.364 26.0151V25.6987C139.364 24.9956 139.294 24.3378 139.153 23.7251C139.013 23.1024 138.792 22.555 138.49 22.0829C138.199 21.6008 137.817 21.2241 137.345 20.953C136.883 20.6717 136.326 20.5311 135.673 20.5311C135.03 20.5311 134.478 20.6717 134.016 20.953C133.554 21.2241 133.177 21.6008 132.886 22.0829C132.595 22.555 132.379 23.1024 132.238 23.7251C132.097 24.3378 132.027 24.9956 132.027 25.6987ZM150.769 30.0829L154.34 17.6987H156.871L156.117 21.9774L152.517 34H150.332L150.769 30.0829ZM148.795 17.6987L151.477 30.113L151.718 34H149.202L144.923 17.6987H148.795ZM160.185 29.9322L162.807 17.6987H166.663L162.415 34H159.899L160.185 29.9322ZM157.262 17.6987L160.803 29.9623L161.27 34H159.085L155.454 21.9774L154.716 17.6987H157.262ZM173.232 17.6987V34H169.24V17.6987H173.232ZM168.969 13.4351C168.969 12.8425 169.169 12.3503 169.571 11.9586C169.983 11.5669 170.535 11.3711 171.228 11.3711C171.921 11.3711 172.469 11.5669 172.871 11.9586C173.282 12.3503 173.488 12.8425 173.488 13.4351C173.488 14.0176 173.282 14.5048 172.871 14.8965C172.469 15.2882 171.921 15.484 171.228 15.484C170.535 15.484 169.983 15.2882 169.571 14.8965C169.169 14.5048 168.969 14.0176 168.969 13.4351ZM189.805 30.8663V34H177.541V30.8663H189.805ZM189.518 20.0791L179.033 34H176.411V31.5443L186.837 17.6987H189.518V20.0791ZM188.057 17.6987V20.8475H176.622V17.6987H188.057ZM201.616 30.5348V23.017C201.616 22.4646 201.521 21.9875 201.33 21.5857C201.139 21.184 200.848 20.8726 200.456 20.6516C200.065 20.4307 199.567 20.3202 198.965 20.3202C198.432 20.3202 197.965 20.4106 197.564 20.5914C197.172 20.7722 196.871 21.0283 196.66 21.3597C196.449 21.6811 196.343 22.0528 196.343 22.4746H192.351C192.351 21.8017 192.512 21.1639 192.833 20.5612C193.154 19.9486 193.611 19.4062 194.204 18.9341C194.807 18.452 195.525 18.0754 196.358 17.8042C197.202 17.533 198.146 17.3974 199.191 17.3974C200.426 17.3974 201.526 17.6083 202.49 18.0302C203.464 18.442 204.228 19.0647 204.78 19.8983C205.343 20.732 205.624 21.7816 205.624 23.0471V30.1582C205.624 30.9718 205.674 31.6698 205.775 32.2524C205.885 32.8249 206.046 33.322 206.257 33.7439V34H202.204C202.013 33.5882 201.867 33.0659 201.767 32.4331C201.667 31.7903 201.616 31.1576 201.616 30.5348ZM202.174 24.0716L202.204 26.4369H199.688C199.065 26.4369 198.518 26.5022 198.046 26.6328C197.574 26.7533 197.187 26.9341 196.886 27.1752C196.584 27.4062 196.358 27.6874 196.208 28.0188C196.057 28.3403 195.982 28.7069 195.982 29.1187C195.982 29.5204 196.072 29.882 196.253 30.2034C196.444 30.5248 196.715 30.7809 197.066 30.9718C197.428 31.1526 197.85 31.2429 198.332 31.2429C199.035 31.2429 199.648 31.1023 200.17 30.8211C200.692 30.5298 201.099 30.1783 201.39 29.7665C201.682 29.3547 201.837 28.963 201.857 28.5914L203.002 30.3089C202.862 30.7207 202.651 31.1576 202.37 31.6196C202.088 32.0816 201.727 32.5135 201.285 32.9153C200.843 33.317 200.311 33.6485 199.688 33.9096C199.065 34.1707 198.342 34.3013 197.518 34.3013C196.464 34.3013 195.52 34.0904 194.686 33.6686C193.852 33.2467 193.194 32.6692 192.712 31.936C192.23 31.2028 191.989 30.3691 191.989 29.435C191.989 28.5713 192.15 27.8079 192.471 27.145C192.793 26.4821 193.27 25.9247 193.903 25.4727C194.535 25.0107 195.319 24.6642 196.253 24.4332C197.197 24.1921 198.277 24.0716 199.492 24.0716H202.174ZM213.187 21.0283V34H209.21V17.6987H212.976L213.187 21.0283ZM218.144 17.5933L218.083 21.2995C217.862 21.2593 217.611 21.2292 217.33 21.2091C217.059 21.189 216.803 21.1789 216.562 21.1789C215.949 21.1789 215.412 21.2643 214.95 21.4351C214.488 21.5958 214.101 21.8318 213.79 22.1432C213.488 22.4545 213.257 22.8362 213.097 23.2882C212.936 23.7301 212.845 24.2323 212.825 24.7948L211.967 24.6893C211.967 23.6548 212.072 22.6956 212.283 21.8117C212.494 20.9278 212.8 20.1545 213.202 19.4916C213.604 18.8287 214.106 18.3164 214.709 17.9548C215.321 17.5832 216.024 17.3974 216.818 17.3974C217.039 17.3974 217.275 17.4175 217.526 17.4577C217.787 17.4878 217.993 17.533 218.144 17.5933ZM229.805 30.5348V10.8588H233.812V34H230.196L229.805 30.5348ZM219.334 26.0452V25.7288C219.334 24.4834 219.474 23.3535 219.756 22.339C220.047 21.3145 220.469 20.4357 221.021 19.7025C221.574 18.9693 222.242 18.4018 223.025 18C223.818 17.5983 224.717 17.3974 225.722 17.3974C226.696 17.3974 227.545 17.5933 228.268 17.985C229.001 18.3767 229.624 18.9341 230.136 19.6573C230.658 20.3805 231.075 21.2392 231.386 22.2336C231.698 23.2179 231.924 24.3026 232.064 25.4878V26.3465C231.924 27.5016 231.698 28.5612 231.386 29.5254C231.075 30.4897 230.658 31.3333 230.136 32.0565C229.624 32.7696 229.001 33.322 228.268 33.7137C227.535 34.1055 226.676 34.3013 225.692 34.3013C224.697 34.3013 223.803 34.0954 223.01 33.6836C222.226 33.2718 221.559 32.6943 221.006 31.951C220.464 31.2078 220.047 30.334 219.756 29.3296C219.474 28.3252 219.334 27.2304 219.334 26.0452ZM223.326 25.7288V26.0452C223.326 26.7483 223.387 27.4062 223.507 28.0188C223.628 28.6315 223.823 29.1739 224.095 29.646C224.366 30.108 224.712 30.4696 225.134 30.7307C225.566 30.9918 226.088 31.1224 226.701 31.1224C227.484 31.1224 228.127 30.9517 228.629 30.6102C229.142 30.2586 229.538 29.7816 229.82 29.1789C230.101 28.5662 230.282 27.8782 230.362 27.1149V24.7496C230.322 24.1469 230.216 23.5895 230.046 23.0772C229.885 22.565 229.654 22.1231 229.353 21.7514C229.061 21.3798 228.7 21.0885 228.268 20.8776C227.836 20.6667 227.324 20.5612 226.731 20.5612C226.118 20.5612 225.596 20.6968 225.164 20.968C224.732 21.2292 224.381 21.5958 224.11 22.0678C223.838 22.5399 223.638 23.0873 223.507 23.71C223.387 24.3327 223.326 25.0057 223.326 25.7288ZM249.36 34V37.0734H235.635V34H249.36Z" fill="white"/>
</svg>
