<svg width="240" height="241" viewBox="0 0 240 241" fill="none" xmlns="http://www.w3.org/2000/svg">
<path fill-rule="evenodd" clip-rule="evenodd" d="M63.4286 45.7422L74.2857 69.1708L85.1428 45.7422L108.571 34.8851L85.1428 24.0279L74.2857 0.59935L63.4286 24.0279L40 34.8851L63.4286 45.7422ZM194.857 177.171L205.714 200.599L216.571 177.171L240 166.314L216.571 155.456L205.714 132.028L194.857 155.456L171.429 166.314L194.857 177.171ZM3.42857 205.171L35.4286 237.171C37.7143 239.456 40.4762 240.599 43.7143 240.599C46.9524 240.599 49.7143 239.456 52 237.171L179.429 109.742C181.714 107.456 182.857 104.695 182.857 101.456C182.857 98.2184 181.714 95.4565 179.429 93.1708L147.429 61.1708C145.143 58.8851 142.381 57.7422 139.143 57.7422C135.905 57.7422 133.143 58.8851 130.857 61.1708L3.42857 188.599C1.14286 190.885 0 193.647 0 196.885C0 200.123 1.14286 202.885 3.42857 205.171ZM155.143 101.456L139.143 117.456L123.143 101.456L139.143 85.4565L155.143 101.456Z" fill="#90A7E5"/>
<path d="M205.714 69.1708L194.857 45.7422L171.429 34.8851L194.857 24.0279L205.714 0.59935L216.571 24.0279L240 34.8851L216.571 45.7422L205.714 69.1708Z" fill="#90A7E5"/>
</svg>
